<svg width="32" height="38" viewBox="0 0 32 38" fill="none" xmlns="http://www.w3.org/2000/svg">
<path d="M24 3.89998C21.65 2.44998 18.95 1.59998 16 1.59998V3.89998H24Z" fill="#ED4C5C"/>
<path d="M16 6.19996H26.8C25.95 5.34996 25 4.54996 24 3.89996H16V6.19996Z" fill="white"/>
<path d="M16 8.49995H28.65C28.1 7.64995 27.5 6.89995 26.85 6.19995H16V8.49995Z" fill="#ED4C5C"/>
<path d="M16 10.8H29.85C29.5 10 29.1 9.2 28.65 8.5H16V10.8Z" fill="white"/>
<path d="M16 13.1H30.6C30.4 12.3 30.15 11.55 29.85 10.8H16V13.1Z" fill="#ED4C5C"/>
<path d="M16 15.45H30.95C30.9 14.65 30.75 13.9 30.6 13.15H16V15.45Z" fill="white"/>
<path d="M30.95 15.45H16V16.6H1C1 17 1 17.35 1.05 17.75H30.95C31 17.35 31 17 31 16.6C31 16.2 31 15.8 30.95 15.45Z" fill="#ED4C5C"/>
<path d="M1.4 20.05H30.6C30.8 19.3 30.9 18.55 30.95 17.75H1.05C1.1 18.5 1.2 19.3 1.4 20.05Z" fill="white"/>
<path d="M2.15 22.35H29.85C30.15 21.6 30.4 20.85 30.6 20.05H1.4C1.6 20.85 1.85 21.6 2.15 22.35Z" fill="#ED4C5C"/>
<path d="M3.35 24.65H28.65C29.1 23.9 29.5 23.15 29.85 22.35H2.15C2.5 23.15 2.9 23.9 3.35 24.65Z" fill="white"/>
<path d="M5.15 26.95H26.85C27.5 26.25 28.15 25.45 28.65 24.65H3.35C3.85 25.5 4.5 26.25 5.15 26.95Z" fill="#ED4C5C"/>
<path d="M7.95 29.25H24.05C25.1 28.6 26 27.8 26.85 26.95H5.15C6 27.85 6.95 28.6 7.95 29.25Z" fill="white"/>
<path d="M16 31.6C18.95 31.6 21.7 30.75 24.05 29.25H7.95C10.3 30.75 13.05 31.6 16 31.6Z" fill="#ED4C5C"/>
<path d="M8 3.89998C6.95 4.54998 6 5.34998 5.15 6.19998C4.45 6.89998 3.85 7.69998 3.35 8.49998C2.9 9.24998 2.45 9.99998 2.15 10.8C1.85 11.55 1.6 12.3 1.4 13.1C1.2 13.85 1.1 14.6 1.05 15.4C1 15.8 1 16.2 1 16.6H16V1.59998C13.05 1.59998 10.35 2.44998 8 3.89998Z" fill="#428BC1"/>
<path d="M12.5 2.09998L12.75 2.84998H13.5L12.9 3.34998L13.1 4.09998L12.5 3.64998L11.9 4.09998L12.1 3.34998L11.5 2.84998H12.25L12.5 2.09998Z" fill="white"/>
<path d="M14.5 5.09998L14.75 5.84998H15.5L14.9 6.34998L15.1 7.09998L14.5 6.64998L13.9 7.09998L14.1 6.34998L13.5 5.84998H14.25L14.5 5.09998Z" fill="white"/>
<path d="M10.5 5.09998L10.75 5.84998H11.5L10.9 6.34998L11.1 7.09998L10.5 6.64998L9.9 7.09998L10.1 6.34998L9.5 5.84998H10.25L10.5 5.09998Z" fill="white"/>
<path d="M12.5 8.09998L12.75 8.84998H13.5L12.9 9.34998L13.1 10.1L12.5 9.64998L11.9 10.1L12.1 9.34998L11.5 8.84998H12.25L12.5 8.09998Z" fill="white"/>
<path d="M8.5 8.09998L8.75 8.84998H9.5L8.9 9.34998L9.1 10.1L8.5 9.64998L7.9 10.1L8.1 9.34998L7.5 8.84998H8.25L8.5 8.09998Z" fill="white"/>
<path d="M4.5 8.09998L4.75 8.84998H5.5L4.9 9.34998L5.1 10.1L4.5 9.64998L3.9 10.1L4.1 9.34998L3.5 8.84998H4.25L4.5 8.09998Z" fill="white"/>
<path d="M14.5 11.1L14.75 11.85H15.5L14.9 12.35L15.1 13.1L14.5 12.65L13.9 13.1L14.1 12.35L13.5 11.85H14.25L14.5 11.1Z" fill="white"/>
<path d="M10.5 11.1L10.75 11.85H11.5L10.9 12.35L11.1 13.1L10.5 12.65L9.9 13.1L10.1 12.35L9.5 11.85H10.25L10.5 11.1Z" fill="white"/>
<path d="M6.5 11.1L6.75 11.85H7.5L6.9 12.35L7.1 13.1L6.5 12.65L5.9 13.1L6.1 12.35L5.5 11.85H6.25L6.5 11.1Z" fill="white"/>
<path d="M12.5 14.1L12.75 14.85H13.5L12.9 15.35L13.1 16.1L12.5 15.65L11.9 16.1L12.1 15.35L11.5 14.85H12.25L12.5 14.1Z" fill="white"/>
<path d="M8.5 14.1L8.75 14.85H9.5L8.9 15.35L9.1 16.1L8.5 15.65L7.9 16.1L8.1 15.35L7.5 14.85H8.25L8.5 14.1Z" fill="white"/>
<path d="M4.5 14.1L4.75 14.85H5.5L4.9 15.35L5.1 16.1L4.5 15.65L3.9 16.1L4.1 15.35L3.5 14.85H4.25L4.5 14.1Z" fill="white"/>
<path d="M5.9 7.09998L6.5 6.64998L7.1 7.09998L6.85 6.34998L7.45 5.84998H6.7L6.5 5.09998L6.25 5.84998H5.55L6.15 6.29998L5.9 7.09998Z" fill="white"/>
<path d="M1.9 13.1L2.5 12.65L3.1 13.1L2.85 12.35L3.45 11.85H2.75L2.5 11.1L2.25 11.85H1.75C1.75 11.9 1.7 11.95 1.7 12L2.1 12.3L1.9 13.1Z" fill="white"/>
</svg>
