<svg width="102" height="101" viewBox="0 0 102 101" fill="none" xmlns="http://www.w3.org/2000/svg">
<path d="M12.375 30.625H88.875C92.394 30.625 95.25 27.797 95.25 24.3125C95.25 20.828 92.394 18 88.875 18H12.375C8.856 18 6 20.828 6 24.3125C6 27.797 8.856 30.625 12.375 30.625ZM88.875 43.25H12.375C8.856 43.25 6 46.078 6 49.5625C6 53.047 8.856 55.875 12.375 55.875H88.875C92.394 55.875 95.25 53.047 95.25 49.5625C95.25 46.078 92.394 43.25 88.875 43.25ZM88.875 68.5H12.375C8.856 68.5 6 71.328 6 74.8125C6 78.297 8.856 81.125 12.375 81.125H88.875C92.394 81.125 95.25 78.297 95.25 74.8125C95.25 71.328 92.394 68.5 88.875 68.5Z" fill="white"/>
</svg>
